<?xml version="1.0" encoding="UTF-8"?>
<svg width="927px" height="601px" viewBox="0 0 927 601" version="1.1" xmlns="http://www.w3.org/2000/svg" xmlns:xlink="http://www.w3.org/1999/xlink">
    <title>TabNewsIlustration</title>
    <g id="Page-1" stroke="none" stroke-width="1" fill="none" fill-rule="evenodd">
        <g id="TabNewsIlustration" fill-rule="nonzero">
            <circle id="Oval" fill="#FFB8B8" cx="150.53395" cy="254.87249" r="24.56103"></circle>
            <polygon id="Path" fill="#FFB8B8" points="67.543 549.197 73.762 559.763 117.474 540.803 108.295 525.21"></polygon>
            <path d="M69.40648,544.47217 L81.65382,565.27905 L81.65432,565.27989 C83.7242914,568.796652 84.3124149,572.991683 83.2893043,576.942081 C82.2661936,580.892479 79.7156609,584.274632 76.19882,586.34447 L75.76791,586.59809 L55.71552,552.53104 L69.40648,544.47217 Z" id="Path" fill="#2F2E41"></path>
            <polygon id="Path" fill="#FFB8B8" points="139.6 587.26 151.86 587.259 157.692 539.971 139.598 539.972"></polygon>
            <path d="M136.47305,583.25713 L160.61684,583.25613 L160.61784,583.25613 C164.69858,583.25613 168.61222,584.877016 171.497762,587.762511 C174.383304,590.648007 176.00432,594.56162 176.00432,598.64236 L176.00432,599.14236 L136.4738,599.14382 L136.47305,583.25713 Z" id="Path" fill="#2F2E41"></path>
            <path d="M90.31145,558.609701 C88.8804871,558.609701 87.5346492,557.929917 86.68745,556.7767 L74.86372,540.71811 C74.1348083,539.728268 73.8426018,538.483304 74.0550041,537.272526 C74.2674064,536.061747 74.9659225,534.990582 75.98823,534.30795 L128.60223,499.16635 L96.85564,415.69174 L164.74482,421.29427 L167.03144,493.02767 C167.468628,506.339421 160.529674,518.807417 148.98626,525.45147 L92.55974,558.00518 C91.8765693,558.401034 91.1010209,558.609701 90.31145,558.609701 L90.31145,558.609701 Z" id="Path" fill="#2F2E41"></path>
            <path d="M139.97015,577.65947 C137.55042,577.655037 135.567424,575.737834 135.48138,573.31963 L132.99338,503.43779 L163.80173,501.81479 L161.3486,572.19858 C161.27379,574.509066 159.455922,576.384634 157.1489,576.53158 L140.27609,577.64975 C140.17376,577.65657 140.07171,577.65947 139.97015,577.65947 Z" id="Path" fill="#2F2E41"></path>
            <path d="M172.60174,435.17122 C164.76336,435.17122 137.38518,426.35482 127.88055,423.21222 C126.45867,424.34991 118.64739,430.19073 109.52947,429.12335 C103.90347,428.46319 98.95061,425.27862 94.80852,419.65753 C85.66152,407.24347 96.95916,354.00616 108.04752,311.53153 C112.667502,293.688274 130.573939,282.695779 148.57608,286.65165 L148.57608,286.65165 C161.381335,289.478543 171.484805,299.307147 174.66373,312.02958 C176.75138,320.52763 174.95548,330.52372 173.6442,337.82353 C173.02774,341.25517 172.54068,343.9661 172.7072,345.29814 C173.35075,350.44657 176.92595,431.18974 174.62712,434.63798 C174.38225,435.00521 173.67425,435.17122 172.60174,435.17122 Z" id="Path" fill="#6C63FF"></path>
            <path d="M143.92682,435.31424 C146.476998,433.415781 148.055296,430.48526 148.237026,427.311221 C148.418756,424.137181 147.18525,421.04567 144.86842,418.86855 L145.35376,321.02499 L122.30898,324.86239 L129.07823,419.83276 C125.602504,424.060124 125.837903,430.219025 129.626164,434.168752 C133.414425,438.11848 139.558145,438.610594 143.92682,435.31424 L143.92682,435.31424 Z" id="Path" fill="#FFB8B8"></path>
            <path d="M149.25682,383.86068 L124.43499,383.86068 C121.968647,383.853472 119.964771,381.867854 119.93499,379.40168 L119.32561,312.10968 C119.26819,305.777834 122.615981,299.90304 128.092741,296.724884 C133.569501,293.546728 140.331219,293.554987 145.800199,296.746513 C151.269178,299.938039 154.602608,305.820993 154.52972,312.15268 L153.75652,379.41247 C153.719866,381.873862 151.718471,383.852356 149.25682,383.86068 Z" id="Path" fill="#6C63FF"></path>
            <path d="M144.28008,279.331236 C133.03479,279.35179 122.42592,270.4632 120.47722,259.38797 C119.779538,255.037058 120.094104,250.58388 121.39649,246.37425 C124.257506,236.678421 131.176152,228.696094 140.367283,224.486863 C149.558414,220.277632 160.121777,220.253783 169.33182,224.42147 C172.34013,225.78278 175.30327,227.73792 176.68072,230.73888 C178.05817,233.73984 177.19607,237.93416 174.18281,239.28449 C172.21365,240.16691 169.74258,239.73359 167.99562,241.00022 C165.48634,242.81959 166.13228,246.69151 167.25276,249.58134 C168.37324,252.47117 169.64052,255.96825 167.76223,258.43373 C166.012,260.73112 162.51351,260.65982 159.75787,259.7951 C157.00223,258.93038 154.2823,257.48233 151.40923,257.77688 C147.21883,258.20649 144.20751,262.37461 143.65013,266.54994 C143.09275,270.72527 144.40487,274.89886 145.70031,278.90708 L144.28008,279.331236 Z" id="Path" fill="#2F2E41"></path>
            <path d="M259,600.08494 L1,600.08494 C0.44771525,600.08494 0,599.637225 0,599.08494 C0,598.532655 0.44771525,598.08494 1,598.08494 L259,598.08494 C259.552285,598.08494 260,598.532655 260,599.08494 C260,599.637225 259.552285,600.08494 259,600.08494 Z" id="Path" fill-opacity="0.2" fill="#CCCCCC"></path>
            <path d="M910.12164,434.54785 L269.28314,434.54785 C260.174709,434.537556 252.793434,427.156281 252.78314,418.04785 L252.78314,22.89404 C252.790563,16.2210804 258.198071,10.8133534 264.87103,10.80566 L914.32453,10.80566 C921.112935,10.8133754 926.614063,16.3146143 926.62164,23.10302 L926.62164,418.04785 C926.611351,427.156283 919.230073,434.537561 910.12164,434.54785 Z" id="Path" fill-opacity="0.2" fill="#F2F2F2"></path>
            <path d="M889.40182,413.71553 L292.15709,413.71553 C283.40209,413.71553 276.27952,407.0456 276.27952,398.84736 L276.27952,54.74236 C276.27952,48.66228 281.55752,43.71551 288.04515,43.71551 L893.31882,43.71551 C899.91403,43.71551 905.27952,48.74383 905.27952,54.924 L905.27952,398.84736 C905.27952,407.0456 898.15672,413.71553 889.40182,413.71553 Z" id="Path" fill-opacity="0.1" fill="#FFFFFF"></path>
            <path d="M926.39191,24.95019 L252.55158,24.95019 L252.55158,16.5498 C252.564788,7.41109278 259.972866,0.00757767366 269.11158,2.84217094e-14 L909.83182,2.84217094e-14 C918.970575,0.00750061198 926.378716,7.41105111 926.39191,16.5498 L926.39191,24.95019 Z" id="Path" fill="#3F3D56"></path>
            <circle id="Oval" fill="#E02020" cx="282.64694" cy="12.5" r="4.28342"></circle>
            <circle id="Oval" fill="#F7B500" cx="298.90575" cy="12.5" r="4.28342"></circle>
            <circle id="Oval" fill="#6DD400" cx="315.16455" cy="12.5" r="4.28342"></circle>
            <path d="M576.61049,118.95447 L459.80235,118.95447 C456.175971,118.95447 453.23621,116.014709 453.23621,112.38833 C453.23621,108.761951 456.175971,105.82219 459.80235,105.82219 L576.61049,105.82219 C580.236869,105.82219 583.17663,108.761951 583.17663,112.38833 C583.17663,116.014709 580.236869,118.95447 576.61049,118.95447 Z" id="Path" fill="#FFFFFF" opacity="0.4"></path>
            <path d="M721.75669,118.95447 L604.94856,118.95447 C601.322181,118.95447 598.38242,116.014709 598.38242,112.38833 C598.38242,108.761951 601.322181,105.82219 604.94856,105.82219 L721.75669,105.82219 C725.383069,105.82219 728.32283,108.761951 728.32283,112.38833 C728.32283,116.014709 725.383069,118.95447 721.75669,118.95447 Z" id="Path" fill="#FFFFFF" opacity="0.4"></path>
            <path d="M721.75669,143.83666 L518.55201,143.83666 C514.925634,143.83666 511.985875,140.896901 511.985875,137.270525 C511.985875,133.644149 514.925634,130.70439 518.55201,130.70439 L721.75669,130.70439 C725.383066,130.70439 728.322825,133.644149 728.322825,137.270525 C728.322825,140.896901 725.383066,143.83666 721.75669,143.83666 Z" id="Path" fill="#FFFFFF" opacity="0.4"></path>
            <path d="M576.61049,93.726665 L459.80235,93.726665 C456.179138,93.7221886 453.244313,90.7837399 453.244313,87.160525 C453.244313,83.5373101 456.179138,80.5988614 459.80235,80.594385 L576.61049,80.594385 C578.958274,80.5914926 581.128957,81.8423569 582.303686,83.8751161 C583.478415,85.9078753 583.478415,88.4131747 582.303686,90.4459339 C581.128957,92.4786931 578.958274,93.7295574 576.61049,93.726665 Z" id="Path" fill="#FFFFFF" opacity="0.4"></path>
            <path d="M640.88952,94.07225 L607.71325,94.07225 C604.086871,94.07225 601.14711,91.132489 601.14711,87.50611 C601.14711,83.879731 604.086871,80.93997 607.71325,80.93997 L640.88952,80.93997 C644.515899,80.93997 647.45566,83.879731 647.45566,87.50611 C647.45566,91.132489 644.515899,94.07225 640.88952,94.07225 L640.88952,94.07225 Z" id="Path" fill="#FFFFFF" opacity="0.4"></path>
            <path d="M492.97863,143.836665 L459.80235,143.836665 C456.179138,143.832189 453.244313,140.89374 453.244313,137.270525 C453.244313,133.64731 456.179138,130.708861 459.80235,130.704385 L492.97863,130.704385 C495.326414,130.701493 497.497097,131.952357 498.671826,133.985116 C499.846555,136.017875 499.846555,138.523175 498.671826,140.555934 C497.497097,142.588693 495.326414,143.839557 492.97863,143.836665 Z" id="Path" fill="#FFFFFF" opacity="0.4"></path>
            <path d="M576.61049,351.95447 L459.80235,351.95447 C456.175971,351.95447 453.236211,349.014709 453.236211,345.38833 C453.236211,341.761951 456.175971,338.82219 459.80235,338.82219 L576.61049,338.82219 C580.236869,338.82219 583.17663,341.761951 583.17663,345.38833 C583.17663,349.014709 580.236869,351.95447 576.61049,351.95447 L576.61049,351.95447 Z" id="Path" fill="#FFFFFF" opacity="0.4"></path>
            <path d="M721.75669,351.95447 L604.94856,351.95447 C601.322181,351.95447 598.382421,349.014709 598.382421,345.38833 C598.382421,341.761951 601.322181,338.82219 604.94856,338.82219 L721.75669,338.82219 C725.383069,338.82219 728.32283,341.761951 728.32283,345.38833 C728.32283,349.014709 725.383069,351.95447 721.75669,351.95447 L721.75669,351.95447 Z" id="Path" fill="#FFFFFF" opacity="0.4"></path>
            <path d="M721.75669,376.836665 L518.55201,376.836665 C514.925634,376.836665 511.985875,373.896901 511.985875,370.270525 C511.985875,366.644149 514.925634,363.704385 518.55201,363.704385 L721.75669,363.704385 C724.104474,363.701493 726.275157,364.952357 727.449886,366.985116 C728.624615,369.017875 728.624615,371.523175 727.449886,373.555934 C726.275157,375.588693 724.104474,376.839557 721.75669,376.836665 Z" id="Path" fill="#FFFFFF" opacity="0.4"></path>
            <path d="M576.61049,326.72666 L459.80235,326.72666 C456.175974,326.72666 453.236215,323.786901 453.236215,320.160525 C453.236215,316.534149 456.175974,313.59439 459.80235,313.59439 L576.61049,313.59439 C580.236866,313.59439 583.176625,316.534149 583.176625,320.160525 C583.176625,323.786901 580.236866,326.72666 576.61049,326.72666 Z" id="Path" fill="#FFFFFF" opacity="0.4"></path>
            <path d="M640.88952,327.07225 L607.71325,327.07225 C604.086871,327.07225 601.14711,324.132489 601.14711,320.50611 C601.14711,316.879731 604.086871,313.93997 607.71325,313.93997 L640.88952,313.93997 C644.515899,313.93997 647.45566,316.879731 647.45566,320.50611 C647.45566,324.132489 644.515899,327.07225 640.88952,327.07225 Z" id="Path" fill="#FFFFFF" opacity="0.4"></path>
            <path d="M492.97863,376.836665 L459.80235,376.836665 C456.175974,376.836665 453.236215,373.896901 453.236215,370.270525 C453.236215,366.644149 456.175974,363.704385 459.80235,363.704385 L492.97863,363.704385 C495.326414,363.701493 497.497097,364.952357 498.671826,366.985116 C499.846555,369.017875 499.846555,371.523175 498.671826,373.555934 C497.497097,375.588693 495.326414,376.839557 492.97863,376.836665 Z" id="Path" fill="#FFFFFF" opacity="0.4"></path>
            <path d="M546.10382,281.46175 C543.624945,281.467338 541.244258,280.493249 539.4803,278.75161 L495.57162,235.39232 C493.830436,233.672875 492.850401,231.327722 492.850401,228.88064 C492.850401,226.433558 493.830436,224.088405 495.57162,222.36896 L539.30286,179.18461 C543.094438,175.458625 549.178383,175.4778 552.9464,179.22761 L552.9464,179.22761 C556.719837,183.009553 556.719922,189.132252 552.94659,192.9143 L520.45052,225.41094 C518.34256,227.523945 518.34256,230.944455 520.45052,233.05746 L552.7703,265.37762 C555.469447,268.071421 556.277774,272.127023 554.817663,275.64981 C553.357553,279.172598 549.917208,281.467228 546.10382,281.46175 L546.10382,281.46175 Z" id="Path" fill="#6C63FF"></path>
            <path d="M616.06941,281.461732 C612.256022,281.467198 608.815677,279.172568 607.355567,275.64978 C605.895456,272.126993 606.703783,268.071391 609.40293,265.37759 L641.72271,233.05747 C643.83067,230.944465 643.83067,227.523955 641.72271,225.41095 L609.22664,192.91427 C607.41165,191.099302 606.392049,188.637653 606.392049,186.070886 C606.392049,183.504118 607.41179,181.042498 609.22683,179.22758 L609.22683,179.22758 C612.994841,175.477765 619.078787,175.458591 622.87036,179.18458 L666.6016,222.36893 C668.342791,224.088371 669.322831,226.433525 669.322831,228.88061 C669.322831,231.327695 668.342791,233.672849 666.6016,235.39229 L622.69293,278.75158 C620.928855,280.493046 618.548247,281.467113 616.06941,281.461732 L616.06941,281.461732 Z" id="Path" fill="#6C63FF"></path>
        </g>
    </g>
</svg>